<svg width="25" height="26" viewBox="0 0 25 26" fill="none" xmlns="http://www.w3.org/2000/svg">
<path d="M5.20898 4.98116C4.63369 4.98116 4.16732 5.44754 4.16732 6.02283V8.10616C4.16732 8.68145 3.70094 9.14783 3.12565 9.14783C2.55036 9.14783 2.08398 8.68145 2.08398 8.10616V6.02283C2.08398 4.29694 3.4831 2.89783 5.20898 2.89783H7.29232C7.86761 2.89783 8.33398 3.3642 8.33398 3.93949C8.33398 4.51479 7.86761 4.98116 7.29232 4.98116H5.20898Z" fill="url(#paint0_linear_9534_22814)"/>
<path d="M19.793 21.6478C20.3683 21.6478 20.8346 21.1815 20.8346 20.6061V18.5228C20.8346 17.9475 21.301 17.4811 21.8763 17.4811C22.4516 17.4811 22.918 17.9475 22.918 18.5228V20.6061C22.918 22.3321 21.5189 23.7311 19.793 23.7311H17.7096C17.1343 23.7311 16.668 23.2648 16.668 22.6895C16.668 22.1142 17.1343 21.6478 17.7096 21.6478H19.793Z" fill="url(#paint1_linear_9534_22814)"/>
<path d="M20.8346 6.02283C20.8346 5.44754 20.3683 4.98116 19.793 4.98116H17.7096C17.1343 4.98116 16.668 4.51479 16.668 3.93949C16.668 3.3642 17.1343 2.89783 17.7096 2.89783H19.793C21.5189 2.89783 22.918 4.29694 22.918 6.02283V8.10616C22.918 8.68145 22.4516 9.14783 21.8763 9.14783C21.301 9.14783 20.8346 8.68145 20.8346 8.10616V6.02283Z" fill="url(#paint2_linear_9534_22814)"/>
<path d="M5.20898 21.6478C4.63369 21.6478 4.16732 21.1815 4.16732 20.6061V18.5228C4.16732 17.9475 3.70095 17.4811 3.12565 17.4811C2.55036 17.4811 2.08398 17.9475 2.08398 18.5228V20.6061C2.08398 22.3321 3.4831 23.7311 5.20898 23.7311H7.29232C7.86761 23.7311 8.33398 23.2648 8.33398 22.6895C8.33398 22.1142 7.86761 21.6478 7.29232 21.6478H5.20898Z" fill="url(#paint3_linear_9534_22814)"/>
<path d="M8.33333 7.06451C7.18274 7.06451 6.25 7.99725 6.25 9.14785V12.2728H4.16667C3.59137 12.2728 3.125 12.7392 3.125 13.3145C3.125 13.8898 3.59137 14.3562 4.16667 14.3562H20.8333C21.4086 14.3562 21.875 13.8898 21.875 13.3145C21.875 12.7392 21.4086 12.2728 20.8333 12.2728H18.75V9.14785C18.75 7.99725 17.8173 7.06451 16.6667 7.06451H8.33333Z" fill="url(#paint4_linear_9534_22814)"/>
<path d="M18.75 15.3978H6.25V17.4812C6.25 18.6318 7.18274 19.5645 8.33333 19.5645H16.6667C17.8173 19.5645 18.75 18.6318 18.75 17.4812V15.3978Z" fill="url(#paint5_linear_9534_22814)"/>
<defs>
<linearGradient id="paint0_linear_9534_22814" x1="5.20898" y1="2.89783" x2="5.20898" y2="9.14783" gradientUnits="userSpaceOnUse">
<stop stop-color="#917EFE"/>
<stop offset="1" stop-color="white"/>
</linearGradient>
<linearGradient id="paint1_linear_9534_22814" x1="19.793" y1="17.4811" x2="19.793" y2="23.7311" gradientUnits="userSpaceOnUse">
<stop stop-color="#917EFE"/>
<stop offset="1" stop-color="white"/>
</linearGradient>
<linearGradient id="paint2_linear_9534_22814" x1="19.793" y1="2.89783" x2="19.793" y2="9.14783" gradientUnits="userSpaceOnUse">
<stop stop-color="#917EFE"/>
<stop offset="1" stop-color="white"/>
</linearGradient>
<linearGradient id="paint3_linear_9534_22814" x1="5.20898" y1="17.4811" x2="5.20898" y2="23.7311" gradientUnits="userSpaceOnUse">
<stop stop-color="#917EFE"/>
<stop offset="1" stop-color="white"/>
</linearGradient>
<linearGradient id="paint4_linear_9534_22814" x1="12.5" y1="7.06451" x2="12.5" y2="14.3562" gradientUnits="userSpaceOnUse">
<stop stop-color="#917EFE"/>
<stop offset="1" stop-color="white"/>
</linearGradient>
<linearGradient id="paint5_linear_9534_22814" x1="12.5" y1="15.3978" x2="12.5" y2="19.5645" gradientUnits="userSpaceOnUse">
<stop stop-color="#917EFE"/>
<stop stop-color="white"/>
</linearGradient>
</defs>
</svg>
