<svg width="25" height="26" viewBox="0 0 25 26" fill="none" xmlns="http://www.w3.org/2000/svg">
<g clip-path="url(#clip0_9534_22778)">
<path d="M0 8.64552V22.9751C0 24.0913 0.904785 24.9961 2.021 24.9961H5.85938V8.64552H0ZM2.92969 20.1328C2.52539 20.1328 2.19727 19.8047 2.19727 19.4004C2.19727 18.9956 2.52539 18.668 2.92969 18.668C3.33398 18.668 3.66211 18.9956 3.66211 19.4004C3.66211 19.8047 3.33398 20.1328 2.92969 20.1328ZM2.92969 17.2031C2.52539 17.2031 2.19727 16.875 2.19727 16.4707C2.19727 16.0659 2.52539 15.7383 2.92969 15.7383C3.33398 15.7383 3.66211 16.0659 3.66211 16.4707C3.66211 16.875 3.33398 17.2031 2.92969 17.2031ZM2.92969 14.2735C2.52539 14.2735 2.19727 13.9453 2.19727 13.541C2.19727 13.1362 2.52539 12.8086 2.92969 12.8086C3.33398 12.8086 3.66211 13.1362 3.66211 13.541C3.66211 13.9453 3.33398 14.2735 2.92969 14.2735Z" fill="url(#paint0_linear_9534_22778)"/>
<path d="M22.979 1.96486H2.021C0.906738 1.96486 0 2.8716 0 3.98586V7.18068H25V3.98586C25 2.8716 24.0933 1.96486 22.979 1.96486ZM2.92969 5.30519C2.52539 5.30519 2.19727 4.97707 2.19727 4.57277C2.19727 4.16847 2.52539 3.84035 2.92969 3.84035C3.33398 3.84035 3.66211 4.16847 3.66211 4.57277C3.66211 4.97707 3.33398 5.30519 2.92969 5.30519ZM18.8916 5.30519C18.4873 5.30519 18.1592 4.97707 18.1592 4.57277C18.1592 4.16847 18.4873 3.84035 18.8916 3.84035C19.2959 3.84035 19.624 4.16847 19.624 4.57277C19.624 4.97707 19.2959 5.30519 18.8916 5.30519ZM21.8213 5.30519C21.417 5.30519 21.0889 4.97707 21.0889 4.57277C21.0889 4.16847 21.417 3.84035 21.8213 3.84035C22.2256 3.84035 22.5537 4.16847 22.5537 4.57277C22.5537 4.97707 22.2256 5.30519 21.8213 5.30519Z" fill="url(#paint1_linear_9534_22778)"/>
<path d="M8 9H25V22C25 23.6569 23.6569 25 22 25H8V9Z" fill="url(#paint2_linear_9534_22778)"/>
<path d="M15.8488 12C13.7267 12 12 13.7266 12 15.8486C12 17.9707 13.7267 19.6972 15.8488 19.6972C16.7028 19.6971 17.5321 19.4113 18.2048 18.8852L20.3197 21L21 20.3198L18.8851 18.2049C19.4115 17.5323 19.6975 16.7028 19.6977 15.8486C19.6977 13.7266 17.971 12 15.8488 12Z" fill="#25232E"/>
</g>
<defs>
<linearGradient id="paint0_linear_9534_22778" x1="2.92969" y1="8.64552" x2="2.92969" y2="24.9961" gradientUnits="userSpaceOnUse">
<stop stop-color="#917EFE"/>
<stop offset="1" stop-color="white"/>
</linearGradient>
<linearGradient id="paint1_linear_9534_22778" x1="12.5" y1="1.96486" x2="12.5" y2="7.18068" gradientUnits="userSpaceOnUse">
<stop stop-color="#917EFE"/>
<stop offset="1" stop-color="white"/>
</linearGradient>
<linearGradient id="paint2_linear_9534_22778" x1="9.60703" y1="8.3931" x2="29.7469" y2="9.83715" gradientUnits="userSpaceOnUse">
<stop stop-color="white"/>
<stop offset="1" stop-color="#8978F1"/>
</linearGradient>
<clipPath id="clip0_9534_22778">
<rect width="25" height="25" fill="white" transform="translate(0 0.980484)"/>
</clipPath>
</defs>
</svg>
